<svg xmlns="http://www.w3.org/2000/svg" xmlns:xlink="http://www.w3.org/1999/xlink" width="484" zoomAndPan="magnify" viewBox="0 0 363 135.000003" height="180" preserveAspectRatio="xMidYMid meet" version="1.0"><defs><clipPath id="fc686ff0a2"><path d="M 62.382812 38 L 290.9375 38 L 290.9375 96.550781 L 62.382812 96.550781 Z M 62.382812 38 " clip-rule="nonzero"/></clipPath><clipPath id="2a906675d9"><path d="M 62.382812 37.734375 L 266 37.734375 L 266 89 L 62.382812 89 Z M 62.382812 37.734375 " clip-rule="nonzero"/></clipPath><clipPath id="b0e966af6e"><path d="M 74 37.734375 L 290.9375 37.734375 L 290.9375 96 L 74 96 Z M 74 37.734375 " clip-rule="nonzero"/></clipPath><clipPath id="f54068262d"><path d="M 112 45 L 290.9375 45 L 290.9375 96.550781 L 112 96.550781 Z M 112 45 " clip-rule="nonzero"/></clipPath></defs><g clip-path="url(#fc686ff0a2)"><path fill="#000000" d="M 78.042969 69.148438 L 71.714844 49.570312 L 76.59375 53.769531 L 82.921875 73.347656 Z M 102.421875 72.359375 L 95.554688 52.804688 L 90.675781 48.605469 L 97.542969 68.160156 Z M 120.449219 70.328125 L 125.328125 74.527344 L 125.191406 69.085938 L 137.011719 68.484375 L 136.816406 60.660156 L 131.9375 56.457031 L 132.128906 64.285156 L 120.3125 64.886719 Z M 135.152344 74.027344 L 130.273438 69.828125 L 130.464844 77.554688 L 120.640625 78.054688 L 120.785156 83.742188 L 125.664062 87.941406 L 125.519531 82.257812 L 135.34375 81.757812 Z M 137.867188 87.320312 L 132.988281 83.121094 L 133.117188 88.171875 L 114.359375 89.125 L 113.695312 62.382812 L 116.757812 51.726562 L 111.878906 47.527344 L 111.585938 47.542969 L 102.648438 78.632812 L 95.9375 78.96875 L 92.191406 68.367188 L 92.507812 67.363281 L 91.542969 66.53125 L 88.988281 59.296875 L 87.746094 63.265625 L 87.628906 63.164062 L 82.433594 79.773438 L 75.371094 80.015625 L 64.90625 49.917969 L 62.71875 50.027344 L 74.519531 83.976562 L 79.398438 88.175781 L 86.105469 87.832031 L 91.015625 72.136719 L 95.089844 82.929688 L 99.96875 87.128906 L 106.679688 86.789062 L 111.84375 68.820312 L 112.421875 92 L 133.1875 90.945312 L 133.203125 90.960938 L 112.703125 92 L 117.582031 96.199219 L 138.347656 95.144531 L 138.058594 94.894531 Z M 150.828125 78.671875 L 150.164062 51.992188 L 145.285156 47.792969 L 145.949219 74.472656 Z M 164.101562 64.757812 C 164.113281 64.863281 164.121094 64.972656 164.136719 65.078125 C 164.152344 65.179688 164.175781 65.277344 164.195312 65.375 C 164.222656 65.527344 164.25 65.675781 164.28125 65.820312 C 164.320312 65.996094 164.367188 66.167969 164.414062 66.339844 C 164.453125 66.476562 164.492188 66.617188 164.539062 66.75 C 164.59375 66.917969 164.65625 67.078125 164.71875 67.238281 C 164.769531 67.363281 164.820312 67.492188 164.875 67.613281 C 164.945312 67.773438 165.023438 67.925781 165.105469 68.074219 C 165.164062 68.1875 165.222656 68.304688 165.285156 68.414062 C 165.300781 68.441406 165.316406 68.472656 165.332031 68.503906 C 165.394531 68.601562 165.464844 68.695312 165.527344 68.792969 C 165.613281 68.921875 165.699219 69.050781 165.789062 69.175781 C 165.875 69.292969 165.972656 69.402344 166.0625 69.515625 C 166.160156 69.628906 166.257812 69.75 166.359375 69.859375 C 166.382812 69.882812 166.402344 69.914062 166.425781 69.9375 C 166.582031 70.097656 166.742188 70.253906 166.910156 70.402344 C 166.910156 70.402344 166.910156 70.402344 166.914062 70.40625 L 171.640625 74.585938 C 171.449219 74.414062 171.265625 74.230469 171.089844 74.042969 C 170.988281 73.929688 170.890625 73.8125 170.792969 73.695312 C 170.703125 73.585938 170.605469 73.476562 170.519531 73.359375 C 170.425781 73.234375 170.34375 73.101562 170.257812 72.972656 C 170.175781 72.851562 170.089844 72.726562 170.015625 72.597656 C 169.949219 72.488281 169.894531 72.371094 169.832031 72.257812 C 169.753906 72.105469 169.675781 71.953125 169.605469 71.796875 C 169.546875 71.675781 169.5 71.546875 169.449219 71.421875 C 169.386719 71.257812 169.324219 71.097656 169.265625 70.929688 C 169.222656 70.796875 169.183594 70.660156 169.144531 70.519531 C 169.097656 70.351562 169.050781 70.175781 169.011719 70 C 168.976562 69.855469 168.949219 69.707031 168.925781 69.558594 C 168.886719 69.355469 168.855469 69.148438 168.828125 68.9375 C 168.820312 68.847656 168.808594 68.757812 168.796875 68.667969 C 168.769531 68.34375 168.746094 68.015625 168.742188 67.679688 C 168.738281 67.34375 168.75 67.015625 168.773438 66.695312 C 168.777344 66.625 168.789062 66.558594 168.792969 66.488281 C 168.816406 66.253906 168.839844 66.023438 168.875 65.796875 C 168.890625 65.695312 168.910156 65.597656 168.929688 65.496094 C 168.96875 65.289062 169.007812 65.085938 169.058594 64.886719 C 169.074219 64.820312 169.089844 64.757812 169.105469 64.691406 C 169.175781 64.433594 169.25 64.183594 169.339844 63.9375 C 169.453125 63.617188 169.585938 63.308594 169.730469 63.007812 C 169.769531 62.925781 169.816406 62.851562 169.855469 62.769531 C 169.96875 62.554688 170.085938 62.347656 170.210938 62.144531 C 170.269531 62.054688 170.332031 61.964844 170.390625 61.875 C 170.535156 61.664062 170.691406 61.457031 170.851562 61.257812 C 170.917969 61.179688 170.976562 61.097656 171.046875 61.019531 C 171.105469 60.953125 171.164062 60.890625 171.222656 60.828125 C 171.34375 60.699219 171.460938 60.578125 171.585938 60.460938 C 171.652344 60.394531 171.722656 60.332031 171.789062 60.273438 C 171.917969 60.15625 172.050781 60.046875 172.1875 59.9375 C 172.253906 59.886719 172.320312 59.832031 172.386719 59.777344 C 172.566406 59.644531 172.75 59.519531 172.9375 59.398438 C 172.96875 59.382812 172.992188 59.359375 173.019531 59.34375 C 173.238281 59.207031 173.464844 59.082031 173.691406 58.964844 C 173.761719 58.929688 173.832031 58.898438 173.902344 58.867188 C 174.066406 58.789062 174.230469 58.710938 174.402344 58.640625 C 174.488281 58.605469 174.578125 58.574219 174.667969 58.539062 C 174.824219 58.480469 174.988281 58.421875 175.148438 58.371094 C 175.242188 58.34375 175.332031 58.3125 175.425781 58.285156 C 175.601562 58.238281 175.777344 58.195312 175.957031 58.152344 C 176.039062 58.132812 176.121094 58.113281 176.203125 58.097656 C 176.464844 58.042969 176.726562 58 176.996094 57.964844 C 177.289062 57.929688 177.589844 57.90625 177.890625 57.894531 C 179.667969 57.828125 181.265625 58.183594 182.652344 58.90625 L 185.757812 61.65625 L 191.773438 57.28125 L 187.421875 52.796875 L 181.242188 57.320312 L 179.605469 55.871094 C 177.910156 54.371094 175.710938 53.621094 173.160156 53.714844 C 172.859375 53.726562 172.5625 53.75 172.265625 53.785156 C 172 53.816406 171.734375 53.863281 171.472656 53.914062 C 171.390625 53.929688 171.308594 53.953125 171.226562 53.972656 C 171.046875 54.011719 170.871094 54.054688 170.699219 54.105469 C 170.605469 54.132812 170.511719 54.160156 170.421875 54.191406 C 170.257812 54.242188 170.097656 54.296875 169.9375 54.359375 C 169.847656 54.390625 169.761719 54.425781 169.671875 54.460938 C 169.503906 54.53125 169.335938 54.605469 169.171875 54.6875 C 169.101562 54.71875 169.03125 54.75 168.964844 54.785156 C 168.734375 54.902344 168.511719 55.027344 168.292969 55.164062 C 168.265625 55.179688 168.238281 55.199219 168.207031 55.21875 C 168.019531 55.339844 167.835938 55.464844 167.660156 55.597656 C 167.589844 55.648438 167.523438 55.703125 167.457031 55.757812 C 167.371094 55.828125 167.28125 55.894531 167.195312 55.96875 C 167.148438 56.007812 167.105469 56.050781 167.058594 56.089844 C 166.992188 56.152344 166.925781 56.214844 166.859375 56.28125 C 166.734375 56.398438 166.613281 56.519531 166.496094 56.644531 C 166.433594 56.710938 166.375 56.773438 166.316406 56.839844 C 166.289062 56.871094 166.261719 56.898438 166.234375 56.929688 C 166.195312 56.976562 166.160156 57.03125 166.121094 57.078125 C 165.960938 57.277344 165.808594 57.480469 165.660156 57.695312 C 165.628906 57.746094 165.585938 57.789062 165.554688 57.839844 C 165.527344 57.878906 165.507812 57.921875 165.484375 57.964844 C 165.355469 58.164062 165.238281 58.375 165.128906 58.589844 C 165.09375 58.652344 165.054688 58.707031 165.023438 58.769531 C 165.015625 58.789062 165.011719 58.808594 165 58.824219 C 164.855469 59.125 164.726562 59.433594 164.609375 59.757812 C 164.605469 59.769531 164.601562 59.78125 164.597656 59.792969 C 164.515625 60.023438 164.441406 60.265625 164.378906 60.511719 C 164.359375 60.574219 164.34375 60.640625 164.328125 60.707031 C 164.304688 60.800781 164.277344 60.894531 164.257812 60.992188 C 164.234375 61.097656 164.21875 61.207031 164.199219 61.316406 C 164.179688 61.414062 164.160156 61.515625 164.144531 61.617188 C 164.113281 61.839844 164.085938 62.070312 164.066406 62.304688 C 164.058594 62.375 164.046875 62.445312 164.042969 62.515625 C 164.042969 62.53125 164.039062 62.546875 164.039062 62.5625 C 164.019531 62.867188 164.007812 63.179688 164.011719 63.496094 C 164.015625 63.835938 164.039062 64.164062 164.070312 64.484375 C 164.078125 64.578125 164.089844 64.667969 164.101562 64.757812 Z M 196.210938 72.390625 C 196.222656 72.496094 196.230469 72.601562 196.246094 72.707031 C 196.261719 72.808594 196.285156 72.90625 196.304688 73.007812 C 196.332031 73.160156 196.359375 73.316406 196.394531 73.46875 C 196.433594 73.640625 196.480469 73.8125 196.527344 73.984375 C 196.566406 74.128906 196.609375 74.273438 196.65625 74.414062 C 196.710938 74.582031 196.773438 74.738281 196.835938 74.898438 C 196.890625 75.035156 196.941406 75.167969 197 75.300781 C 197.070312 75.453125 197.148438 75.601562 197.226562 75.75 C 197.289062 75.875 197.351562 76 197.421875 76.121094 C 197.441406 76.15625 197.460938 76.195312 197.480469 76.230469 C 197.542969 76.328125 197.613281 76.421875 197.679688 76.519531 C 197.761719 76.640625 197.839844 76.769531 197.929688 76.886719 C 198.019531 77.011719 198.121094 77.128906 198.21875 77.246094 C 198.3125 77.359375 198.40625 77.472656 198.503906 77.578125 C 198.527344 77.605469 198.550781 77.632812 198.574219 77.660156 C 198.730469 77.824219 198.894531 77.984375 199.066406 78.132812 L 203.792969 82.316406 C 203.597656 82.140625 203.414062 81.953125 203.234375 81.757812 C 203.132812 81.652344 203.042969 81.539062 202.949219 81.425781 C 202.851562 81.308594 202.75 81.191406 202.65625 81.066406 C 202.570312 80.949219 202.488281 80.824219 202.40625 80.699219 C 202.320312 80.570312 202.230469 80.4375 202.152344 80.300781 C 202.082031 80.183594 202.019531 80.058594 201.953125 79.933594 C 201.875 79.785156 201.796875 79.636719 201.726562 79.480469 C 201.671875 79.351562 201.617188 79.214844 201.5625 79.082031 C 201.5 78.921875 201.441406 78.761719 201.382812 78.597656 C 201.335938 78.457031 201.296875 78.308594 201.253906 78.164062 C 201.207031 77.996094 201.164062 77.824219 201.121094 77.648438 C 201.089844 77.496094 201.058594 77.34375 201.03125 77.1875 C 200.996094 76.984375 200.960938 76.78125 200.9375 76.570312 C 200.925781 76.480469 200.914062 76.394531 200.90625 76.300781 C 200.875 75.980469 200.855469 75.652344 200.851562 75.3125 C 200.847656 74.980469 200.855469 74.65625 200.878906 74.339844 C 200.882812 74.277344 200.894531 74.214844 200.898438 74.152344 C 200.917969 73.914062 200.945312 73.679688 200.980469 73.449219 C 200.996094 73.347656 201.015625 73.246094 201.03125 73.148438 C 201.070312 72.949219 201.105469 72.753906 201.152344 72.5625 C 201.171875 72.488281 201.1875 72.414062 201.207031 72.34375 C 201.273438 72.09375 201.34375 71.847656 201.425781 71.609375 C 201.429688 71.597656 201.433594 71.585938 201.4375 71.570312 C 201.445312 71.554688 201.453125 71.535156 201.460938 71.515625 C 201.570312 71.210938 201.699219 70.914062 201.835938 70.625 C 201.882812 70.53125 201.929688 70.4375 201.980469 70.347656 C 202.089844 70.136719 202.203125 69.9375 202.324219 69.738281 C 202.382812 69.648438 202.4375 69.558594 202.496094 69.46875 C 202.664062 69.222656 202.84375 68.984375 203.03125 68.753906 C 203.0625 68.71875 203.085938 68.679688 203.117188 68.644531 C 203.152344 68.605469 203.1875 68.570312 203.222656 68.53125 C 203.359375 68.378906 203.496094 68.234375 203.640625 68.089844 C 203.703125 68.03125 203.765625 67.972656 203.832031 67.914062 C 203.957031 67.796875 204.085938 67.6875 204.214844 67.578125 C 204.285156 67.523438 204.355469 67.46875 204.425781 67.414062 C 204.566406 67.304688 204.710938 67.203125 204.855469 67.101562 C 204.921875 67.058594 204.980469 67.015625 205.046875 66.976562 C 205.257812 66.839844 205.472656 66.710938 205.695312 66.59375 C 205.71875 66.582031 205.742188 66.574219 205.761719 66.5625 C 205.964844 66.457031 206.175781 66.363281 206.386719 66.273438 C 206.460938 66.242188 206.539062 66.210938 206.617188 66.183594 C 206.78125 66.117188 206.945312 66.058594 207.113281 66.003906 C 207.199219 65.976562 207.285156 65.949219 207.375 65.921875 C 207.546875 65.871094 207.722656 65.828125 207.898438 65.785156 C 207.976562 65.769531 208.058594 65.746094 208.136719 65.730469 C 208.394531 65.679688 208.652344 65.632812 208.917969 65.601562 C 209.195312 65.566406 209.476562 65.546875 209.757812 65.535156 C 212.117188 65.445312 214.269531 66.195312 215.882812 67.625 L 211.15625 63.441406 C 209.539062 62.011719 207.386719 61.265625 205.03125 61.351562 C 204.746094 61.363281 204.464844 61.386719 204.1875 61.417969 C 203.925781 61.453125 203.664062 61.496094 203.410156 61.550781 C 203.328125 61.566406 203.25 61.585938 203.167969 61.605469 C 202.992188 61.644531 202.816406 61.691406 202.644531 61.742188 C 202.558594 61.765625 202.472656 61.792969 202.386719 61.820312 C 202.214844 61.875 202.050781 61.9375 201.886719 62 C 201.808594 62.03125 201.730469 62.058594 201.65625 62.089844 C 201.445312 62.179688 201.234375 62.277344 201.03125 62.382812 C 201.011719 62.394531 200.988281 62.402344 200.96875 62.414062 C 200.746094 62.53125 200.527344 62.660156 200.316406 62.792969 C 200.25 62.835938 200.191406 62.878906 200.128906 62.921875 C 199.980469 63.019531 199.835938 63.125 199.695312 63.230469 C 199.625 63.285156 199.554688 63.339844 199.488281 63.398438 C 199.429688 63.441406 199.371094 63.484375 199.316406 63.535156 C 199.242188 63.597656 199.171875 63.667969 199.101562 63.734375 C 199.039062 63.792969 198.972656 63.847656 198.910156 63.910156 C 198.765625 64.050781 198.628906 64.199219 198.492188 64.351562 C 198.460938 64.390625 198.421875 64.425781 198.386719 64.464844 C 198.382812 64.472656 198.371094 64.480469 198.367188 64.488281 C 198.34375 64.515625 198.324219 64.546875 198.300781 64.574219 C 198.113281 64.800781 197.9375 65.039062 197.769531 65.289062 C 197.742188 65.328125 197.710938 65.359375 197.6875 65.398438 C 197.652344 65.449219 197.628906 65.507812 197.597656 65.558594 C 197.472656 65.753906 197.359375 65.957031 197.25 66.164062 C 197.21875 66.226562 197.179688 66.28125 197.148438 66.34375 C 197.132812 66.378906 197.121094 66.414062 197.105469 66.445312 C 196.96875 66.730469 196.84375 67.027344 196.734375 67.335938 C 196.726562 67.351562 196.71875 67.363281 196.710938 67.382812 C 196.710938 67.382812 196.710938 67.386719 196.710938 67.390625 C 196.707031 67.402344 196.703125 67.414062 196.699219 67.425781 C 196.617188 67.664062 196.542969 67.910156 196.476562 68.164062 C 196.460938 68.234375 196.441406 68.304688 196.425781 68.378906 C 196.40625 68.453125 196.382812 68.527344 196.367188 68.605469 C 196.34375 68.722656 196.324219 68.84375 196.304688 68.964844 C 196.285156 69.066406 196.265625 69.164062 196.25 69.265625 C 196.214844 69.496094 196.191406 69.730469 196.167969 69.96875 C 196.164062 70.03125 196.15625 70.09375 196.152344 70.15625 C 196.148438 70.167969 196.148438 70.179688 196.148438 70.1875 C 196.125 70.496094 196.117188 70.808594 196.121094 71.128906 C 196.125 71.46875 196.148438 71.796875 196.175781 72.117188 C 196.1875 72.210938 196.199219 72.300781 196.210938 72.390625 Z M 246.757812 66.101562 L 236.996094 43.289062 L 232.265625 39.105469 L 242.027344 61.917969 Z M 272.941406 66.070312 L 277.820312 70.269531 L 277.683594 64.828125 L 289.5 64.226562 L 289.308594 56.402344 L 284.425781 52.203125 L 284.621094 60.027344 L 272.804688 60.628906 Z M 287.640625 69.769531 L 282.761719 65.570312 L 282.957031 73.300781 L 273.132812 73.800781 L 273.273438 79.484375 L 278.152344 83.683594 L 278.011719 78 L 287.835938 77.5 Z M 290.550781 90.640625 L 290.359375 83.0625 L 285.476562 78.863281 L 285.675781 86.6875 L 285.691406 86.703125 L 265.195312 87.742188 L 270.074219 91.941406 L 290.839844 90.886719 Z M 285.605469 83.914062 L 285.675781 86.6875 L 264.910156 87.742188 L 264.621094 76.117188 L 257.230469 76.390625 L 252.5 72.207031 L 260.898438 71.898438 L 252.5 72.207031 L 252.476562 70.03125 L 249.980469 76.664062 L 243.828125 76.894531 L 239.097656 72.710938 L 236.449219 66.515625 L 236.574219 77.167969 L 228.175781 77.476562 L 227.425781 76.816406 C 227.410156 76.941406 227.402344 77.066406 227.386719 77.191406 C 227.375 77.269531 227.363281 77.351562 227.351562 77.429688 C 227.296875 77.78125 227.238281 78.128906 227.167969 78.46875 C 227.15625 78.511719 227.152344 78.554688 227.144531 78.597656 C 227.140625 78.617188 227.132812 78.636719 227.128906 78.652344 C 227.058594 78.984375 226.976562 79.308594 226.886719 79.628906 C 226.867188 79.703125 226.839844 79.777344 226.820312 79.851562 C 226.746094 80.101562 226.667969 80.347656 226.585938 80.589844 C 226.570312 80.636719 226.554688 80.6875 226.539062 80.734375 C 226.519531 80.789062 226.496094 80.839844 226.480469 80.894531 C 226.402344 81.101562 226.324219 81.304688 226.242188 81.511719 C 226.203125 81.601562 226.167969 81.691406 226.128906 81.78125 C 226.007812 82.070312 225.878906 82.351562 225.742188 82.628906 C 225.742188 82.632812 225.742188 82.632812 225.742188 82.632812 C 225.738281 82.636719 225.738281 82.640625 225.734375 82.644531 C 225.601562 82.917969 225.453125 83.1875 225.304688 83.457031 C 225.257812 83.539062 225.207031 83.621094 225.160156 83.707031 C 225.050781 83.894531 224.9375 84.082031 224.820312 84.261719 C 224.789062 84.308594 224.761719 84.359375 224.730469 84.40625 C 224.707031 84.445312 224.679688 84.480469 224.652344 84.519531 C 224.492188 84.757812 224.328125 84.996094 224.160156 85.226562 C 224.132812 85.261719 224.109375 85.296875 224.082031 85.332031 C 223.886719 85.59375 223.683594 85.847656 223.472656 86.097656 C 223.449219 86.121094 223.433594 86.148438 223.410156 86.171875 C 223.382812 86.207031 223.351562 86.234375 223.324219 86.269531 C 223.058594 86.574219 222.789062 86.871094 222.503906 87.152344 C 222.503906 87.15625 222.503906 87.15625 222.503906 87.15625 C 222.21875 87.441406 221.921875 87.714844 221.617188 87.976562 C 221.585938 88.007812 221.554688 88.039062 221.523438 88.066406 C 221.5 88.085938 221.476562 88.101562 221.457031 88.117188 C 221.167969 88.367188 220.867188 88.601562 220.5625 88.832031 C 220.5 88.875 220.441406 88.917969 220.378906 88.960938 C 220.058594 89.195312 219.734375 89.417969 219.398438 89.628906 C 219.394531 89.632812 219.386719 89.636719 219.382812 89.636719 C 219.050781 89.847656 218.707031 90.039062 218.359375 90.226562 C 218.292969 90.261719 218.230469 90.296875 218.164062 90.332031 C 217.824219 90.507812 217.476562 90.675781 217.121094 90.832031 C 217.054688 90.863281 216.984375 90.894531 216.914062 90.921875 C 216.542969 91.082031 216.171875 91.230469 215.789062 91.363281 C 215.785156 91.367188 215.78125 91.367188 215.777344 91.367188 C 215.398438 91.5 215.011719 91.621094 214.621094 91.730469 C 214.546875 91.75 214.476562 91.769531 214.402344 91.789062 C 214.023438 91.890625 213.636719 91.980469 213.246094 92.058594 C 213.171875 92.074219 213.09375 92.089844 213.019531 92.101562 C 212.613281 92.179688 212.203125 92.246094 211.785156 92.296875 C 211.25 92.363281 210.707031 92.40625 210.15625 92.425781 C 205.390625 92.605469 201.019531 91.058594 197.796875 88.207031 L 194.304688 85.027344 C 192.324219 83.617188 190.679688 81.773438 189.5 79.570312 C 189.34375 79.75 189.1875 79.925781 189.023438 80.089844 C 188.925781 80.1875 188.828125 80.28125 188.730469 80.375 C 188.558594 80.539062 188.390625 80.699219 188.214844 80.855469 C 188.167969 80.894531 188.121094 80.945312 188.074219 80.984375 C 188.023438 81.03125 187.96875 81.066406 187.914062 81.109375 C 187.691406 81.296875 187.464844 81.476562 187.234375 81.648438 C 187.152344 81.710938 187.070312 81.773438 186.984375 81.835938 C 186.675781 82.054688 186.363281 82.261719 186.042969 82.457031 C 185.988281 82.488281 185.933594 82.519531 185.875 82.550781 C 185.609375 82.707031 185.335938 82.855469 185.0625 82.996094 C 184.960938 83.046875 184.859375 83.097656 184.753906 83.148438 C 184.511719 83.265625 184.269531 83.375 184.023438 83.476562 C 183.925781 83.515625 183.832031 83.558594 183.738281 83.597656 C 183.40625 83.730469 183.070312 83.851562 182.734375 83.960938 C 182.699219 83.972656 182.664062 83.984375 182.628906 83.992188 C 182.324219 84.089844 182.019531 84.175781 181.714844 84.253906 C 181.609375 84.28125 181.503906 84.308594 181.398438 84.332031 C 181.152344 84.390625 180.902344 84.445312 180.65625 84.492188 C 180.554688 84.511719 180.453125 84.535156 180.351562 84.550781 C 180.015625 84.609375 179.679688 84.664062 179.34375 84.703125 C 178.785156 84.773438 178.234375 84.816406 177.6875 84.835938 C 172.917969 85.015625 168.507812 83.507812 165.261719 80.636719 L 163.097656 78.722656 L 163.277344 85.878906 L 142.46875 86.9375 L 137.585938 82.738281 L 136.730469 48.230469 L 139.199219 48.105469 L 140 80.332031 L 158.339844 79.398438 L 158.398438 81.679688 L 158.203125 73.851562 L 159.222656 74.730469 C 157.296875 72.445312 155.984375 69.550781 155.542969 66.148438 C 157.753906 73.726562 164.707031 78.128906 172.664062 77.828125 C 173.210938 77.808594 173.761719 77.765625 174.320312 77.699219 C 178.347656 77.207031 182.605469 75.394531 185.636719 71.113281 L 187.265625 72.167969 C 187.222656 72.242188 187.175781 72.3125 187.132812 72.386719 L 187.550781 72.753906 C 187.515625 72.328125 187.492188 71.894531 187.488281 71.457031 C 187.445312 67.691406 188.464844 64.324219 190.242188 61.546875 C 189.359375 63.707031 188.875 66.117188 188.90625 68.722656 C 188.929688 70.992188 189.339844 73.089844 190.0625 74.976562 L 191.71875 76.441406 C 191.550781 76.75 191.371094 77.039062 191.1875 77.328125 C 194.265625 82.621094 200.128906 85.710938 206.757812 85.464844 C 207.304688 85.445312 207.847656 85.402344 208.386719 85.335938 C 213.835938 84.671875 218.578125 81.742188 221.40625 77.320312 C 218.972656 83.253906 213.476562 87.277344 206.96875 88.070312 C 206.429688 88.132812 205.886719 88.175781 205.335938 88.199219 C 204.589844 88.226562 203.851562 88.207031 203.125 88.152344 C 203.890625 88.238281 204.660156 88.273438 205.425781 88.246094 C 205.976562 88.226562 206.519531 88.183594 207.054688 88.117188 C 207.472656 88.066406 207.882812 88 208.289062 87.921875 C 208.363281 87.90625 208.441406 87.894531 208.515625 87.878906 C 208.90625 87.800781 209.292969 87.710938 209.671875 87.609375 C 209.746094 87.589844 209.820312 87.566406 209.890625 87.546875 C 210.28125 87.4375 210.671875 87.320312 211.050781 87.1875 C 211.050781 87.1875 211.054688 87.183594 211.058594 87.183594 C 211.441406 87.050781 211.816406 86.898438 212.183594 86.742188 C 212.253906 86.710938 212.324219 86.683594 212.390625 86.652344 C 212.746094 86.496094 213.09375 86.328125 213.433594 86.148438 C 213.5 86.117188 213.566406 86.082031 213.628906 86.046875 C 213.976562 85.859375 214.316406 85.664062 214.652344 85.457031 C 214.65625 85.453125 214.664062 85.453125 214.667969 85.449219 C 215.003906 85.238281 215.328125 85.011719 215.648438 84.78125 C 215.710938 84.738281 215.769531 84.695312 215.832031 84.648438 C 216.136719 84.421875 216.4375 84.183594 216.726562 83.9375 C 216.78125 83.890625 216.835938 83.84375 216.886719 83.796875 C 217.191406 83.53125 217.488281 83.261719 217.773438 82.976562 C 217.773438 82.976562 217.773438 82.972656 217.777344 82.972656 C 218.058594 82.6875 218.328125 82.390625 218.59375 82.085938 C 218.640625 82.03125 218.691406 81.976562 218.742188 81.917969 C 218.953125 81.667969 219.15625 81.414062 219.351562 81.152344 C 219.378906 81.117188 219.402344 81.082031 219.429688 81.046875 C 219.597656 80.816406 219.765625 80.578125 219.925781 80.335938 C 219.980469 80.253906 220.035156 80.167969 220.089844 80.082031 C 220.207031 79.898438 220.320312 79.714844 220.429688 79.523438 C 220.476562 79.441406 220.527344 79.359375 220.574219 79.273438 C 220.726562 79.007812 220.871094 78.738281 221.007812 78.460938 C 221.007812 78.457031 221.011719 78.453125 221.011719 78.449219 C 221.148438 78.171875 221.277344 77.886719 221.398438 77.601562 C 221.4375 77.511719 221.472656 77.421875 221.507812 77.332031 C 221.59375 77.128906 221.671875 76.921875 221.75 76.710938 C 221.785156 76.613281 221.820312 76.511719 221.855469 76.410156 C 221.9375 76.167969 222.015625 75.921875 222.089844 75.671875 C 222.113281 75.597656 222.136719 75.523438 222.15625 75.449219 C 222.246094 75.128906 222.328125 74.800781 222.398438 74.472656 C 222.414062 74.414062 222.421875 74.351562 222.4375 74.292969 C 222.507812 73.949219 222.570312 73.601562 222.621094 73.25 C 222.632812 73.171875 222.648438 73.089844 222.65625 73.011719 C 222.710938 72.621094 222.753906 72.222656 222.78125 71.824219 C 222.792969 71.652344 222.800781 71.476562 222.808594 71.304688 C 222.8125 71.214844 222.820312 71.125 222.824219 71.035156 C 222.832031 70.753906 222.835938 70.472656 222.832031 70.1875 C 222.828125 69.78125 222.808594 69.386719 222.777344 68.992188 C 222.769531 68.878906 222.761719 68.769531 222.75 68.65625 C 222.722656 68.355469 222.6875 68.058594 222.648438 67.765625 C 222.632812 67.660156 222.621094 67.550781 222.601562 67.441406 C 222.582031 67.3125 222.558594 67.183594 222.535156 67.054688 C 222.507812 66.890625 222.476562 66.726562 222.441406 66.5625 C 222.414062 66.433594 222.386719 66.304688 222.355469 66.179688 C 222.320312 66.019531 222.28125 65.859375 222.242188 65.703125 C 222.207031 65.578125 222.171875 65.449219 222.136719 65.324219 C 222.09375 65.171875 222.046875 65.019531 222 64.867188 C 221.960938 64.742188 221.921875 64.621094 221.878906 64.5 C 221.828125 64.351562 221.773438 64.203125 221.71875 64.054688 C 221.675781 63.933594 221.628906 63.816406 221.582031 63.699219 C 221.523438 63.554688 221.460938 63.410156 221.398438 63.265625 C 221.351562 63.152344 221.300781 63.035156 221.246094 62.921875 C 221.183594 62.78125 221.113281 62.640625 221.042969 62.503906 C 220.988281 62.390625 220.9375 62.28125 220.878906 62.175781 C 220.804688 62.035156 220.726562 61.898438 220.652344 61.757812 C 220.59375 61.65625 220.535156 61.554688 220.476562 61.453125 C 220.40625 61.339844 220.335938 61.226562 220.265625 61.113281 C 220.183594 60.980469 220.097656 60.84375 220.007812 60.710938 C 219.9375 60.601562 219.859375 60.496094 219.785156 60.390625 C 219.695312 60.261719 219.601562 60.132812 219.511719 60.011719 C 219.429688 59.902344 219.347656 59.800781 219.265625 59.695312 C 219.171875 59.574219 219.074219 59.457031 218.976562 59.339844 C 218.890625 59.238281 218.800781 59.136719 218.714844 59.039062 C 218.613281 58.921875 218.511719 58.808594 218.40625 58.699219 C 218.339844 58.625 218.265625 58.554688 218.195312 58.480469 C 217.917969 58.195312 217.636719 57.917969 217.339844 57.65625 L 222.070312 61.839844 C 222.367188 62.101562 222.648438 62.378906 222.925781 62.664062 C 222.960938 62.695312 222.996094 62.726562 223.03125 62.761719 C 223.066406 62.800781 223.101562 62.84375 223.136719 62.878906 C 223.203125 62.949219 223.265625 63.023438 223.332031 63.09375 L 223.058594 39.453125 L 224.292969 39.40625 L 224.582031 64.667969 C 224.632812 64.742188 224.6875 64.816406 224.738281 64.890625 C 224.824219 65.023438 224.910156 65.160156 224.992188 65.292969 C 225.046875 65.378906 225.105469 65.460938 225.15625 65.546875 C 225.171875 65.574219 225.1875 65.601562 225.203125 65.628906 C 225.265625 65.730469 225.320312 65.835938 225.378906 65.9375 C 225.457031 66.074219 225.535156 66.214844 225.609375 66.355469 C 225.664062 66.460938 225.71875 66.570312 225.773438 66.679688 C 225.84375 66.820312 225.910156 66.960938 225.976562 67.101562 C 226.027344 67.214844 226.078125 67.332031 226.128906 67.445312 C 226.191406 67.589844 226.25 67.734375 226.308594 67.878906 C 226.355469 67.996094 226.402344 68.113281 226.445312 68.234375 C 226.5 68.382812 226.554688 68.53125 226.605469 68.679688 C 226.648438 68.800781 226.6875 68.921875 226.726562 69.046875 C 226.777344 69.199219 226.820312 69.351562 226.867188 69.503906 C 226.902344 69.628906 226.9375 69.753906 226.96875 69.882812 C 227.011719 70.039062 227.046875 70.199219 227.085938 70.359375 C 227.109375 70.457031 227.128906 70.558594 227.152344 70.65625 L 231.8125 70.484375 L 231.636719 55.15625 L 231.878906 55.144531 L 232.039062 55.289062 L 231.992188 51.195312 L 232.230469 51.1875 L 235.144531 58.035156 L 236.605469 59.328125 L 236.367188 59.339844 L 236.386719 60.953125 L 240.304688 70.167969 L 246.207031 69.945312 L 245.25 72.480469 L 252.0625 54.390625 L 252.296875 54.378906 L 252.308594 54.390625 L 253.265625 51.84375 L 253.5 51.835938 L 253.542969 55.484375 L 257.023438 58.5625 L 256.789062 58.570312 L 253.675781 66.847656 L 253.707031 69.664062 L 260.871094 69.398438 L 260.511719 38.050781 L 265.242188 42.230469 L 265.367188 53.175781 L 266.0625 53.140625 L 266.851562 84.867188 Z M 178.148438 79.726562 C 177.0625 80.070312 175.96875 80.296875 174.886719 80.429688 C 174.328125 80.496094 173.777344 80.539062 173.230469 80.5625 C 169.460938 80.703125 165.921875 79.785156 163 77.980469 L 163.082031 78.050781 L 163.085938 78.292969 C 165.9375 79.953125 169.34375 80.789062 172.957031 80.652344 C 173.503906 80.632812 174.054688 80.589844 174.613281 80.519531 C 174.949219 80.480469 175.285156 80.425781 175.621094 80.367188 C 175.722656 80.351562 175.824219 80.328125 175.925781 80.308594 C 176.171875 80.261719 176.417969 80.207031 176.667969 80.148438 C 176.773438 80.125 176.878906 80.101562 176.984375 80.074219 C 177.289062 79.992188 177.59375 79.90625 177.894531 79.8125 C 177.929688 79.800781 177.96875 79.789062 178.003906 79.777344 C 178.050781 79.761719 178.097656 79.742188 178.148438 79.726562 Z M 178.148438 79.726562 " fill-opacity="1" fill-rule="nonzero"/></g><g clip-path="url(#2a906675d9)"><path fill="#fcefd1" d="M 111.859375 47.207031 L 102.863281 47.667969 C 102.726562 47.671875 102.605469 47.769531 102.570312 47.902344 L 97.5 67.070312 L 90.976562 48.5 C 90.929688 48.367188 90.804688 48.273438 90.660156 48.285156 L 83.902344 48.632812 C 83.765625 48.640625 83.648438 48.730469 83.609375 48.859375 L 78.027344 68.0625 L 72.019531 49.472656 C 71.972656 49.335938 71.835938 49.234375 71.699219 49.253906 L 62.699219 49.710938 C 62.601562 49.714844 62.507812 49.765625 62.453125 49.847656 C 62.398438 49.933594 62.382812 50.035156 62.414062 50.132812 L 74.214844 84.078125 C 74.261719 84.207031 74.382812 84.292969 74.515625 84.292969 C 74.523438 84.292969 74.527344 84.292969 74.535156 84.292969 L 81.242188 83.949219 C 81.378906 83.945312 81.492188 83.855469 81.53125 83.726562 L 87.65625 64.140625 L 94.789062 83.042969 C 94.839844 83.171875 94.960938 83.265625 95.105469 83.246094 L 101.816406 82.90625 C 101.949219 82.902344 102.066406 82.808594 102.105469 82.675781 L 112.183594 47.613281 C 112.214844 47.515625 112.191406 47.410156 112.128906 47.328125 C 112.0625 47.25 111.964844 47.203125 111.859375 47.207031 Z M 80.988281 83.324219 L 74.742188 83.644531 L 63.15625 50.324219 L 65.015625 50.230469 L 75.367188 80.015625 L 82.097656 79.785156 Z M 101.554688 82.285156 L 95.304688 82.601562 L 87.925781 63.050781 C 87.910156 63.003906 87.882812 62.96875 87.847656 62.9375 L 88.988281 59.296875 L 95.9375 78.96875 L 102.601562 78.632812 Z M 162.765625 78.214844 L 162.9375 85.164062 L 158.710938 81.527344 L 158.539062 74.5625 L 158.988281 74.945312 C 158.628906 74.523438 158.292969 74.082031 157.980469 73.625 C 157.917969 73.683594 157.878906 73.769531 157.882812 73.859375 L 158.070312 81.375 L 137.570312 82.417969 C 137.4375 82.425781 137.328125 82.507812 137.285156 82.632812 C 137.242188 82.753906 137.277344 82.890625 137.378906 82.976562 L 142.257812 87.175781 C 142.316406 87.226562 142.390625 87.253906 142.464844 87.253906 C 142.472656 87.253906 142.476562 87.253906 142.480469 87.253906 L 163.292969 86.195312 C 163.332031 86.191406 163.367188 86.179688 163.402344 86.164062 C 163.40625 86.164062 163.410156 86.164062 163.410156 86.164062 C 163.421875 86.160156 163.429688 86.152344 163.4375 86.144531 C 163.453125 86.136719 163.464844 86.128906 163.476562 86.121094 C 163.488281 86.109375 163.5 86.097656 163.511719 86.085938 C 163.519531 86.074219 163.53125 86.066406 163.539062 86.054688 C 163.546875 86.039062 163.554688 86.023438 163.5625 86.007812 C 163.566406 85.996094 163.574219 85.988281 163.578125 85.980469 C 163.578125 85.976562 163.578125 85.972656 163.578125 85.96875 C 163.582031 85.953125 163.585938 85.9375 163.589844 85.917969 C 163.589844 85.90625 163.59375 85.890625 163.59375 85.875 C 163.59375 85.875 163.59375 85.871094 163.59375 85.867188 L 163.414062 78.597656 C 163.195312 78.472656 162.976562 78.34375 162.765625 78.214844 Z M 142.578125 86.609375 L 138.398438 83.011719 L 158.285156 82 L 160.25 83.691406 L 162.464844 85.597656 Z M 192.085938 57.3125 C 192.09375 57.222656 192.0625 57.132812 192 57.066406 L 187.949219 52.78125 C 187.84375 52.667969 187.675781 52.648438 187.546875 52.734375 L 180.855469 57.214844 C 180.773438 57.269531 180.722656 57.355469 180.71875 57.453125 C 180.710938 57.546875 180.75 57.644531 180.820312 57.707031 L 185.550781 61.890625 C 185.609375 61.941406 185.683594 61.96875 185.757812 61.96875 C 185.824219 61.96875 185.886719 61.949219 185.945312 61.90625 L 191.957031 57.535156 C 192.03125 57.480469 192.078125 57.398438 192.085938 57.3125 Z M 185.777344 61.253906 L 181.539062 57.507812 L 187.675781 53.402344 L 191.304688 57.238281 Z M 145.503906 47.558594 C 145.496094 47.554688 145.488281 47.550781 145.480469 47.546875 C 145.484375 47.546875 145.488281 47.546875 145.492188 47.550781 L 150.375 51.75 C 150.441406 51.808594 150.480469 51.894531 150.484375 51.984375 L 150.484375 52.078125 L 150.496094 52.085938 L 150.488281 52.128906 L 151.027344 73.898438 L 150.390625 73.929688 L 149.921875 55.089844 L 146.292969 74.109375 L 145.632812 48.511719 L 145.621094 48.503906 L 145.605469 47.785156 C 145.601562 47.699219 145.566406 47.617188 145.503906 47.558594 Z M 204.929688 53.082031 C 204.367188 53.105469 203.804688 53.148438 203.253906 53.214844 C 193.828125 54.363281 187.066406 62.035156 187.171875 71.457031 C 187.226562 76.316406 189.066406 80.707031 192.34375 83.820312 C 195.554688 86.867188 199.878906 88.523438 204.589844 88.523438 C 204.839844 88.523438 205.09375 88.515625 205.347656 88.507812 C 205.898438 88.488281 206.457031 88.445312 207.003906 88.375 C 216.414062 87.230469 223.167969 79.558594 223.054688 70.132812 C 223 65.269531 221.160156 60.875 217.878906 57.757812 C 214.507812 54.558594 209.917969 52.902344 204.929688 53.082031 Z M 204.226562 61.730469 C 204.492188 61.699219 204.769531 61.675781 205.042969 61.664062 C 205.164062 61.660156 205.28125 61.660156 205.402344 61.660156 C 207.617188 61.660156 209.648438 62.433594 211.152344 63.863281 C 212.851562 65.476562 213.761719 67.757812 213.792969 70.460938 C 213.851562 75.507812 210.734375 79.285156 206.03125 79.859375 C 205.773438 79.890625 205.503906 79.910156 205.234375 79.921875 C 202.855469 80.007812 200.664062 79.226562 199.070312 77.714844 C 197.375 76.105469 196.464844 73.828125 196.4375 71.128906 C 196.375 66.082031 199.507812 62.304688 204.226562 61.730469 Z M 220.273438 78.882812 C 217.648438 83.660156 212.832031 87.039062 206.929688 87.757812 C 206.398438 87.820312 205.859375 87.863281 205.324219 87.882812 C 200.488281 88.0625 196.035156 86.460938 192.777344 83.371094 C 189.621094 80.371094 187.851562 76.140625 187.800781 71.449219 C 187.765625 68.394531 188.441406 65.5625 189.695312 63.09375 C 189.164062 64.839844 188.882812 66.722656 188.90625 68.71875 C 189.023438 79.0625 197.074219 85.824219 206.753906 85.460938 C 207.304688 85.441406 207.847656 85.398438 208.386719 85.332031 C 213.164062 84.75 217.398438 82.425781 220.273438 78.882812 Z M 237.28125 43.167969 L 243.421875 57.511719 L 243.09375 58.339844 L 238.382812 47.324219 L 242.03125 61.046875 L 242.023438 61.066406 L 237.882812 51.433594 L 242.015625 61.09375 L 232.554688 38.984375 C 232.535156 38.9375 232.503906 38.902344 232.46875 38.867188 C 232.46875 38.871094 232.472656 38.871094 232.472656 38.871094 L 237.203125 43.054688 C 237.238281 43.085938 237.265625 43.125 237.28125 43.167969 Z M 265.675781 52.839844 L 265.046875 52.871094 L 264.929688 42.375 L 260.832031 38.75 L 260.824219 38.046875 C 260.824219 37.960938 260.789062 37.882812 260.726562 37.824219 C 260.722656 37.820312 260.714844 37.816406 260.707031 37.8125 C 260.710938 37.8125 260.714844 37.8125 260.71875 37.816406 L 265.449219 42 C 265.515625 42.058594 265.554688 42.140625 265.554688 42.230469 Z M 265.675781 52.839844 " fill-opacity="1" fill-rule="nonzero"/></g><g clip-path="url(#b0e966af6e)"><path fill="#ed6c40" d="M 81.59375 83.527344 L 81.53125 83.726562 C 81.492188 83.855469 81.378906 83.945312 81.242188 83.949219 L 74.535156 84.292969 C 74.527344 84.292969 74.523438 84.292969 74.519531 84.292969 C 74.429688 84.292969 74.347656 84.253906 74.289062 84.191406 C 74.296875 84.199219 74.300781 84.210938 74.308594 84.21875 L 79.1875 88.417969 C 79.246094 88.464844 79.320312 88.492188 79.398438 88.492188 C 79.402344 88.492188 79.410156 88.492188 79.414062 88.492188 L 86.125 88.148438 C 86.253906 88.144531 86.367188 88.058594 86.410156 87.933594 C 86.453125 87.8125 86.414062 87.675781 86.316406 87.589844 Z M 79.507812 87.851562 L 75.328125 84.253906 L 81.117188 83.957031 L 85.296875 87.554688 Z M 94.875 83.164062 C 94.878906 83.167969 94.886719 83.175781 94.894531 83.183594 L 94.878906 83.171875 C 94.878906 83.167969 94.875 83.164062 94.875 83.164062 Z M 157.929688 73.546875 L 146.261719 74.136719 L 145.605469 47.785156 C 145.601562 47.699219 145.566406 47.617188 145.503906 47.558594 C 145.4375 47.5 145.351562 47.464844 145.269531 47.476562 L 136.710938 47.910156 C 136.539062 47.917969 136.402344 48.0625 136.40625 48.238281 L 136.703125 60.140625 L 132.144531 56.21875 C 132.140625 56.214844 132.136719 56.214844 132.132812 56.210938 C 132.136719 56.214844 132.148438 56.21875 132.152344 56.222656 C 132.214844 56.28125 132.253906 56.363281 132.253906 56.449219 L 132.449219 64.277344 C 132.453125 64.449219 132.320312 64.59375 132.148438 64.601562 L 121.378906 65.152344 L 132.019531 64.609375 L 136.199219 68.207031 L 125.304688 68.761719 L 121.125 65.164062 L 120.640625 65.1875 L 120.730469 68.753906 L 120.652344 65.597656 L 124.878906 69.234375 L 124.890625 69.785156 L 125.527344 69.75 L 125.519531 69.386719 L 136.921875 68.808594 L 137.265625 82.742188 C 137.269531 82.828125 137.304688 82.910156 137.371094 82.96875 C 137.429688 83.023438 137.503906 83.054688 137.585938 83.054688 C 137.589844 83.054688 137.597656 83.054688 137.601562 83.054688 L 158.414062 81.996094 C 158.585938 81.984375 158.71875 81.839844 158.714844 81.667969 L 158.535156 74.386719 C 158.320312 74.113281 158.121094 73.832031 157.929688 73.546875 Z M 136.445312 67.578125 L 132.445312 64.132812 L 132.273438 57.167969 L 136.5 60.808594 L 136.671875 67.773438 Z M 137.898438 82.402344 L 137.054688 48.53125 L 139.203125 48.421875 L 139.996094 80.332031 L 158.019531 79.414062 L 158.066406 81.375 Z M 138.074219 87.078125 L 133.195312 82.878906 C 133.191406 82.878906 133.1875 82.878906 133.183594 82.875 C 133.1875 82.878906 133.199219 82.882812 133.203125 82.886719 C 133.265625 82.945312 133.304688 83.027344 133.304688 83.113281 L 133.503906 90.9375 C 133.507812 91.109375 133.375 91.253906 133.203125 91.265625 L 133.074219 91.269531 L 137.855469 95.386719 C 137.917969 95.4375 137.992188 95.464844 138.066406 95.464844 C 138.113281 95.464844 138.160156 95.453125 138.203125 95.433594 C 138.316406 95.378906 138.386719 95.261719 138.386719 95.136719 L 138.1875 87.3125 C 138.183594 87.222656 138.144531 87.140625 138.074219 87.078125 Z M 133.5 90.796875 L 133.324219 83.832031 L 137.550781 87.46875 L 137.726562 94.433594 Z M 135.359375 82.074219 C 135.398438 82.070312 135.4375 82.0625 135.472656 82.046875 C 135.472656 82.042969 135.476562 82.046875 135.480469 82.042969 C 135.492188 82.039062 135.5 82.03125 135.507812 82.023438 C 135.519531 82.015625 135.535156 82.007812 135.546875 82 C 135.558594 81.988281 135.570312 81.976562 135.582031 81.964844 C 135.589844 81.953125 135.597656 81.945312 135.609375 81.933594 C 135.617188 81.917969 135.625 81.902344 135.632812 81.886719 C 135.636719 81.878906 135.644531 81.867188 135.644531 81.859375 C 135.648438 81.855469 135.648438 81.851562 135.648438 81.847656 C 135.652344 81.832031 135.65625 81.816406 135.65625 81.796875 C 135.660156 81.785156 135.664062 81.769531 135.664062 81.757812 C 135.664062 81.753906 135.664062 81.75 135.664062 81.746094 L 135.46875 74.019531 C 135.46875 73.929688 135.429688 73.847656 135.359375 73.785156 L 130.480469 69.585938 C 130.476562 69.585938 130.472656 69.585938 130.46875 69.582031 C 130.472656 69.585938 130.484375 69.589844 130.488281 69.59375 C 130.550781 69.652344 130.589844 69.734375 130.589844 69.820312 L 130.609375 70.539062 L 134.835938 74.175781 L 135.007812 81.042969 L 134.425781 80.542969 L 130.78125 77.40625 L 130.730469 75.378906 L 130.785156 77.546875 C 130.789062 77.71875 130.65625 77.863281 130.484375 77.875 L 120.96875 78.359375 L 120.980469 78.765625 L 125.207031 82.402344 L 125.226562 83.195312 L 125.863281 83.164062 L 125.847656 82.558594 Z M 123.570312 80.15625 L 121.453125 78.332031 L 130.351562 77.878906 L 132.488281 79.71875 L 134.535156 81.476562 L 125.632812 81.929688 Z M 227.011719 76.867188 L 227.578125 77.371094 L 227.570312 77.425781 C 227.515625 77.785156 227.453125 78.136719 227.382812 78.484375 C 227.371094 78.558594 227.363281 78.589844 227.359375 78.617188 L 227.347656 78.636719 L 227.34375 78.671875 C 227.269531 79.003906 227.1875 79.335938 227.097656 79.660156 L 227.027344 79.890625 C 226.953125 80.144531 226.875 80.394531 226.792969 80.640625 L 226.683594 80.949219 C 226.605469 81.160156 226.523438 81.371094 226.441406 81.578125 L 226.40625 81.660156 C 226.382812 81.726562 226.355469 81.789062 226.328125 81.855469 C 226.203125 82.144531 226.074219 82.433594 225.933594 82.71875 C 225.789062 83.011719 225.640625 83.289062 225.488281 83.558594 L 225.339844 83.8125 C 225.226562 84.003906 225.113281 84.195312 224.992188 84.382812 L 224.824219 84.640625 C 224.664062 84.886719 224.496094 85.125 224.320312 85.363281 L 224.246094 85.46875 C 224.042969 85.738281 223.832031 85.996094 223.621094 86.25 L 223.5 86.390625 C 223.175781 86.761719 222.90625 87.054688 222.644531 87.316406 C 222.640625 87.320312 222.636719 87.324219 222.632812 87.328125 C 222.371094 87.589844 222.078125 87.863281 221.734375 88.164062 L 221.636719 88.253906 C 221.632812 88.257812 221.59375 88.285156 221.589844 88.289062 C 221.273438 88.558594 220.96875 88.800781 220.65625 89.03125 L 220.472656 89.164062 C 220.109375 89.429688 219.785156 89.648438 219.472656 89.84375 C 219.148438 90.046875 218.808594 90.242188 218.417969 90.453125 L 218.21875 90.558594 C 217.875 90.738281 217.519531 90.910156 217.160156 91.070312 L 216.945312 91.160156 C 216.527344 91.339844 216.152344 91.488281 215.804688 91.609375 C 215.445312 91.738281 215.058594 91.855469 214.617188 91.980469 L 214.394531 92.042969 C 214.007812 92.144531 213.613281 92.238281 213.21875 92.316406 L 212.988281 92.359375 C 212.511719 92.449219 212.113281 92.511719 211.734375 92.558594 C 211.183594 92.625 210.628906 92.667969 210.078125 92.691406 C 209.828125 92.699219 209.574219 92.703125 209.328125 92.703125 C 204.835938 92.703125 200.660156 91.1875 197.5 88.394531 L 193.9375 85.148438 C 194.785156 85.769531 195.691406 86.3125 196.644531 86.769531 L 197.917969 87.929688 C 201.128906 90.769531 205.441406 92.234375 210.054688 92.066406 C 210.585938 92.046875 211.125 92.003906 211.65625 91.9375 C 212.023438 91.894531 212.410156 91.832031 212.871094 91.746094 L 213.09375 91.703125 C 213.476562 91.628906 213.859375 91.539062 214.230469 91.4375 L 214.449219 91.378906 C 214.878906 91.257812 215.25 91.140625 215.585938 91.023438 C 215.929688 90.902344 216.292969 90.761719 216.699219 90.585938 L 216.90625 90.496094 C 217.253906 90.34375 217.597656 90.179688 217.929688 90.003906 L 218.121094 89.902344 C 218.5 89.699219 218.828125 89.511719 219.125 89.324219 C 219.4375 89.128906 219.753906 88.914062 220.105469 88.660156 L 220.285156 88.53125 C 220.585938 88.308594 220.878906 88.074219 221.164062 87.832031 C 221.167969 87.828125 221.203125 87.800781 221.207031 87.796875 L 221.320312 87.695312 C 221.652344 87.40625 221.933594 87.144531 222.183594 86.894531 C 222.1875 86.890625 222.191406 86.886719 222.195312 86.882812 C 222.449219 86.628906 222.710938 86.34375 222.996094 86.015625 L 223.050781 85.957031 L 223.070312 85.917969 L 223.105469 85.894531 L 223.140625 85.847656 C 223.347656 85.601562 223.550781 85.351562 223.742188 85.097656 L 223.816406 84.992188 C 223.984375 84.765625 224.148438 84.53125 224.304688 84.296875 L 224.464844 84.046875 C 224.578125 83.867188 224.691406 83.683594 224.796875 83.5 L 224.941406 83.253906 C 225.089844 82.992188 225.230469 82.726562 225.367188 82.457031 C 225.507812 82.171875 225.632812 81.890625 225.753906 81.609375 L 225.859375 81.34375 C 225.941406 81.144531 226.019531 80.941406 226.09375 80.738281 L 226.199219 80.441406 C 226.28125 80.199219 226.355469 79.960938 226.429688 79.714844 L 226.496094 79.492188 C 226.582031 79.179688 226.664062 78.859375 226.734375 78.539062 C 226.734375 78.539062 226.746094 78.480469 226.746094 78.480469 L 226.769531 78.355469 C 226.839844 78.023438 226.898438 77.679688 226.953125 77.335938 L 226.988281 77.097656 C 226.996094 77.023438 227.003906 76.945312 227.011719 76.867188 Z M 277.367188 64.980469 L 277.382812 65.527344 L 278.019531 65.496094 L 278.011719 65.132812 L 289.519531 64.542969 C 289.554688 64.542969 289.59375 64.53125 289.625 64.519531 C 289.628906 64.515625 289.632812 64.515625 289.636719 64.515625 C 289.648438 64.511719 289.660156 64.5 289.667969 64.496094 C 289.679688 64.488281 289.691406 64.480469 289.703125 64.472656 C 289.714844 64.460938 289.726562 64.449219 289.738281 64.4375 C 289.75 64.425781 289.757812 64.417969 289.765625 64.40625 C 289.773438 64.390625 289.78125 64.375 289.789062 64.359375 C 289.792969 64.347656 289.800781 64.339844 289.804688 64.332031 C 289.804688 64.328125 289.804688 64.324219 289.804688 64.320312 C 289.8125 64.304688 289.8125 64.289062 289.816406 64.269531 C 289.816406 64.257812 289.820312 64.242188 289.820312 64.230469 C 289.820312 64.226562 289.820312 64.222656 289.820312 64.21875 L 289.628906 56.394531 C 289.625 56.304688 289.585938 56.21875 289.515625 56.160156 L 284.636719 51.960938 C 284.632812 51.957031 284.628906 51.960938 284.625 51.957031 C 284.628906 51.960938 284.640625 51.964844 284.644531 51.96875 C 284.707031 52.027344 284.746094 52.109375 284.746094 52.195312 L 284.941406 60.019531 C 284.945312 60.195312 284.8125 60.339844 284.640625 60.347656 L 274.980469 60.839844 L 284.511719 60.351562 L 288.691406 63.949219 L 277.796875 64.507812 L 273.617188 60.910156 L 273.132812 60.933594 L 273.21875 64.417969 L 273.144531 61.339844 Z M 284.9375 59.878906 L 284.765625 52.910156 L 288.992188 56.550781 L 289.164062 63.515625 L 289.101562 63.460938 Z M 287.851562 77.816406 C 287.890625 77.816406 287.925781 77.804688 287.960938 77.789062 C 287.964844 77.789062 287.96875 77.789062 287.972656 77.785156 C 287.980469 77.78125 287.988281 77.773438 288 77.769531 C 288.011719 77.761719 288.023438 77.753906 288.035156 77.742188 C 288.050781 77.734375 288.058594 77.722656 288.070312 77.707031 C 288.082031 77.699219 288.089844 77.6875 288.097656 77.675781 C 288.109375 77.660156 288.117188 77.644531 288.121094 77.628906 C 288.128906 77.621094 288.132812 77.613281 288.136719 77.601562 C 288.136719 77.597656 288.136719 77.597656 288.140625 77.59375 C 288.144531 77.578125 288.144531 77.558594 288.148438 77.542969 C 288.148438 77.527344 288.152344 77.515625 288.152344 77.5 C 288.152344 77.496094 288.15625 77.492188 288.15625 77.492188 L 287.960938 69.761719 C 287.960938 69.671875 287.917969 69.589844 287.851562 69.53125 L 282.972656 65.332031 C 282.96875 65.328125 282.960938 65.328125 282.960938 65.324219 C 282.964844 65.332031 282.972656 65.332031 282.980469 65.339844 C 283.042969 65.394531 283.082031 65.476562 283.082031 65.5625 L 283.101562 66.28125 L 287.328125 69.917969 L 287.5 76.789062 L 287.246094 76.570312 L 283.273438 73.148438 L 283.210938 70.730469 L 283.277344 73.292969 C 283.28125 73.464844 283.144531 73.609375 282.972656 73.617188 L 273.460938 74.101562 L 273.472656 74.511719 L 273.996094 74.960938 L 277.699219 78.148438 L 277.71875 78.941406 L 278.355469 78.90625 L 278.339844 78.300781 Z M 275.871094 75.734375 L 273.945312 74.078125 L 282.84375 73.625 L 285.171875 75.625 L 287.023438 77.222656 L 278.125 77.675781 Z M 290.675781 83.054688 C 290.675781 82.964844 290.632812 82.882812 290.566406 82.824219 L 285.6875 78.625 C 285.589844 78.542969 285.457031 78.523438 285.339844 78.578125 C 285.226562 78.628906 285.15625 78.746094 285.160156 78.871094 L 285.359375 86.695312 C 285.359375 86.785156 285.398438 86.871094 285.46875 86.929688 L 290.347656 91.128906 C 290.40625 91.179688 290.480469 91.207031 290.554688 91.207031 C 290.601562 91.207031 290.648438 91.195312 290.691406 91.175781 C 290.804688 91.121094 290.878906 91.007812 290.875 90.878906 Z M 285.992188 86.539062 L 285.816406 79.574219 L 290.042969 83.210938 L 290.21875 90.175781 Z M 112.085938 47.285156 C 112.003906 47.214844 111.894531 47.191406 111.785156 47.222656 C 111.683594 47.253906 111.601562 47.335938 111.570312 47.441406 L 101.492188 82.503906 C 101.457031 82.621094 101.496094 82.75 101.589844 82.832031 L 104.183594 85.0625 L 105.867188 86.511719 L 100.078125 86.804688 L 95.898438 83.207031 L 99.472656 83.027344 L 95.105469 83.246094 C 95.035156 83.257812 94.96875 83.238281 94.917969 83.203125 L 99.757812 87.371094 C 99.816406 87.421875 99.890625 87.449219 99.96875 87.449219 C 99.972656 87.449219 99.980469 87.449219 99.984375 87.445312 L 106.695312 87.109375 C 106.707031 87.109375 106.71875 87.105469 106.730469 87.101562 C 106.742188 87.097656 106.753906 87.101562 106.769531 87.097656 C 106.773438 87.09375 106.773438 87.09375 106.773438 87.09375 C 106.820312 87.078125 106.859375 87.054688 106.894531 87.023438 C 106.898438 87.015625 106.90625 87.007812 106.914062 87.003906 C 106.941406 86.972656 106.964844 86.9375 106.980469 86.894531 C 106.980469 86.890625 106.980469 86.886719 106.980469 86.882812 C 106.984375 86.882812 106.984375 86.878906 106.984375 86.878906 L 117.0625 51.816406 C 117.097656 51.695312 117.058594 51.566406 116.964844 51.484375 Z M 106.507812 86.222656 L 105.445312 85.3125 L 102.160156 82.484375 L 112.046875 48.09375 L 116.394531 51.835938 Z M 260.726562 37.824219 C 260.667969 37.765625 260.578125 37.722656 260.5 37.738281 L 251.246094 38.082031 C 251.121094 38.085938 251.007812 38.164062 250.964844 38.28125 L 242.015625 61.09375 L 232.554688 38.984375 C 232.503906 38.863281 232.382812 38.777344 232.253906 38.792969 L 223.046875 39.136719 C 222.878906 39.144531 222.742188 39.28125 222.746094 39.453125 L 223.007812 62.339844 C 222.707031 62.035156 222.441406 61.78125 222.1875 61.554688 L 217.46875 57.382812 C 217.464844 57.378906 217.460938 57.375 217.457031 57.371094 C 217.449219 57.367188 217.441406 57.363281 217.433594 57.359375 C 217.585938 57.492188 217.734375 57.621094 217.878906 57.757812 C 218.859375 58.6875 219.707031 59.734375 220.421875 60.871094 C 220.421875 60.871094 220.425781 60.875 220.425781 60.875 C 220.402344 60.832031 220.375 60.792969 220.367188 60.78125 L 221.769531 62.019531 C 222.03125 62.25 222.296875 62.507812 222.609375 62.828125 C 222.628906 62.847656 222.652344 62.871094 222.675781 62.890625 L 222.816406 63.042969 C 222.886719 63.113281 222.953125 63.1875 223.019531 63.261719 L 223.132812 73.296875 C 223.132812 73.382812 223.167969 73.460938 223.230469 73.519531 C 223.289062 73.578125 223.363281 73.605469 223.445312 73.605469 C 223.449219 73.605469 223.453125 73.605469 223.457031 73.605469 L 231.855469 73.296875 C 232.023438 73.289062 232.15625 73.148438 232.15625 72.980469 L 231.960938 56.175781 L 238.808594 72.828125 C 238.859375 72.949219 238.976562 73.035156 239.109375 73.023438 L 245.261719 72.792969 C 245.390625 72.789062 245.5 72.707031 245.542969 72.589844 L 251.996094 55.453125 L 252.1875 72.210938 C 252.1875 72.296875 252.222656 72.375 252.285156 72.433594 C 252.347656 72.492188 252.441406 72.527344 252.511719 72.519531 L 260.910156 72.207031 C 261.078125 72.203125 261.214844 72.0625 261.210938 71.894531 L 260.824219 38.046875 C 260.824219 37.960938 260.789062 37.882812 260.726562 37.824219 Z M 223.753906 72.972656 L 223.375 39.75 L 224.296875 39.714844 L 224.652344 70.75 L 231.5 70.496094 L 231.523438 72.683594 Z M 245.03125 72.175781 L 239.304688 72.390625 L 232.164062 55.027344 C 232.136719 54.960938 232.089844 54.910156 232.035156 54.875 L 231.992188 51.195312 L 232.230469 51.1875 L 240.304688 70.167969 L 245.867188 69.957031 Z M 252.808594 71.882812 L 252.609375 54.375 C 252.609375 54.292969 252.570312 54.210938 252.511719 54.152344 C 252.484375 54.128906 252.453125 54.109375 252.417969 54.09375 L 253.265625 51.84375 L 253.5 51.835938 L 253.707031 69.664062 L 260.554688 69.410156 L 260.582031 71.597656 Z M 252.808594 71.882812 " fill-opacity="1" fill-rule="nonzero"/></g><g clip-path="url(#f54068262d)"><path fill="#f4b641" d="M 133.394531 90.703125 C 133.332031 90.652344 133.253906 90.621094 133.167969 90.628906 L 112.402344 91.679688 C 112.273438 91.6875 112.160156 91.773438 112.117188 91.894531 C 112.074219 92.019531 112.113281 92.15625 112.210938 92.238281 L 117.089844 96.441406 C 117.148438 96.488281 117.222656 96.515625 117.300781 96.515625 C 117.304688 96.515625 117.308594 96.515625 117.316406 96.515625 L 138.082031 95.464844 C 138.210938 95.457031 138.324219 95.371094 138.367188 95.25 C 138.410156 95.125 138.371094 94.988281 138.273438 94.90625 Z M 118.4375 95.824219 L 132.046875 91.320312 L 133.074219 91.269531 L 137.253906 94.867188 Z M 172.867188 45.449219 C 172.296875 45.46875 171.722656 45.515625 171.160156 45.582031 C 161.574219 46.75 154.953125 54.25 155.0625 63.828125 C 155.121094 68.804688 156.890625 73.089844 160.183594 76.214844 C 163.375 79.246094 167.710938 80.886719 172.460938 80.886719 C 172.722656 80.886719 172.984375 80.882812 173.242188 80.875 C 173.8125 80.851562 174.375 80.808594 174.925781 80.738281 C 178.820312 80.265625 184.167969 78.421875 187.539062 72.316406 C 187.617188 72.171875 187.570312 71.992188 187.433594 71.902344 L 181.328125 67.941406 C 181.257812 67.894531 181.171875 67.878906 181.089844 67.898438 C 181.007812 67.914062 180.9375 67.964844 180.890625 68.035156 C 179.328125 70.5 177.203125 71.863281 174.398438 72.203125 C 174.097656 72.242188 173.78125 72.265625 173.460938 72.277344 C 170.910156 72.371094 168.574219 71.558594 166.917969 69.984375 C 165.253906 68.402344 164.355469 66.160156 164.328125 63.492188 C 164.269531 58.457031 167.476562 54.679688 172.304688 54.09375 C 172.589844 54.058594 172.882812 54.035156 173.171875 54.027344 C 176.394531 53.914062 179.023438 55.160156 180.773438 57.652344 C 180.78125 57.664062 180.792969 57.671875 180.804688 57.683594 C 180.746094 57.621094 180.710938 57.539062 180.71875 57.453125 C 180.722656 57.355469 180.773438 57.269531 180.855469 57.214844 L 187.546875 52.734375 C 187.621094 52.6875 187.707031 52.675781 187.785156 52.691406 C 183.792969 46.054688 176.730469 45.304688 172.867188 45.449219 Z M 172.664062 77.828125 C 173.210938 77.804688 173.761719 77.761719 174.320312 77.695312 C 178.265625 77.214844 182.429688 75.460938 185.449219 71.359375 L 186.847656 72.265625 C 183.597656 77.9375 178.542969 79.671875 174.851562 80.121094 C 174.316406 80.183594 173.769531 80.226562 173.21875 80.25 C 168.339844 80.429688 163.859375 78.839844 160.617188 75.761719 C 158.382812 73.644531 156.882812 70.964844 156.167969 67.886719 C 158.875 74.386719 165.339844 78.101562 172.664062 77.828125 Z M 290.765625 90.648438 L 285.886719 86.449219 C 285.824219 86.394531 285.742188 86.363281 285.660156 86.371094 L 264.894531 87.425781 C 264.765625 87.429688 264.652344 87.515625 264.609375 87.640625 C 264.566406 87.761719 264.601562 87.898438 264.703125 87.984375 L 269.582031 92.183594 C 269.640625 92.234375 269.714844 92.261719 269.789062 92.261719 C 269.796875 92.261719 269.800781 92.261719 269.804688 92.257812 L 290.570312 91.207031 C 290.703125 91.199219 290.816406 91.113281 290.859375 90.992188 C 290.902344 90.867188 290.863281 90.734375 290.765625 90.648438 Z M 270.929688 91.566406 L 284.539062 87.066406 L 285.566406 87.011719 L 289.746094 90.609375 Z M 212.460938 65.5 C 212.613281 65.75 212.75 66.007812 212.878906 66.277344 C 211.90625 65.960938 210.855469 65.808594 209.773438 65.847656 C 209.496094 65.859375 209.222656 65.878906 208.957031 65.910156 C 208.703125 65.941406 208.449219 65.988281 208.203125 66.039062 C 208.15625 66.046875 208.105469 66.058594 208.058594 66.070312 L 207.96875 66.089844 C 207.800781 66.132812 207.632812 66.175781 207.464844 66.222656 C 207.378906 66.246094 207.296875 66.273438 207.210938 66.300781 C 207.050781 66.355469 206.890625 66.410156 206.730469 66.472656 L 206.664062 66.5 C 206.613281 66.519531 206.558594 66.539062 206.507812 66.5625 C 206.304688 66.648438 206.105469 66.742188 205.90625 66.839844 L 205.894531 66.863281 L 205.84375 66.871094 C 205.628906 66.984375 205.421875 67.109375 205.214844 67.238281 C 205.175781 67.265625 205.140625 67.289062 205.101562 67.316406 L 205.035156 67.363281 C 204.894531 67.457031 204.753906 67.558594 204.617188 67.664062 C 204.550781 67.714844 204.484375 67.765625 204.417969 67.820312 C 204.289062 67.925781 204.167969 68.035156 204.046875 68.144531 L 204.003906 68.183594 C 203.957031 68.226562 203.910156 68.269531 203.863281 68.316406 C 203.722656 68.453125 203.589844 68.59375 203.460938 68.738281 L 203.273438 68.957031 C 203.097656 69.167969 202.925781 69.398438 202.761719 69.644531 C 202.703125 69.730469 202.648438 69.820312 202.59375 69.90625 C 202.476562 70.097656 202.363281 70.292969 202.261719 70.492188 L 202.21875 70.566406 C 202.1875 70.632812 202.152344 70.695312 202.121094 70.761719 C 201.976562 71.0625 201.859375 71.34375 201.757812 71.625 C 201.757812 71.625 201.734375 71.679688 201.734375 71.679688 C 201.644531 71.945312 201.574219 72.183594 201.511719 72.425781 L 201.457031 72.632812 C 201.414062 72.820312 201.378906 73.011719 201.34375 73.203125 L 201.324219 73.300781 C 201.3125 73.363281 201.300781 73.429688 201.292969 73.496094 C 201.257812 73.71875 201.230469 73.949219 201.210938 74.183594 L 201.195312 74.359375 C 201.171875 74.679688 201.160156 75 201.164062 75.308594 C 201.167969 75.601562 201.1875 75.90625 201.21875 76.273438 L 201.25 76.539062 C 201.273438 76.738281 201.308594 76.9375 201.34375 77.136719 C 201.371094 77.285156 201.394531 77.433594 201.429688 77.582031 C 201.46875 77.75 201.511719 77.917969 201.558594 78.082031 C 201.597656 78.222656 201.636719 78.363281 201.683594 78.5 C 201.738281 78.660156 201.796875 78.8125 201.859375 78.96875 C 201.917969 79.125 201.964844 79.242188 202.015625 79.355469 C 202.035156 79.398438 202.058594 79.441406 202.082031 79.484375 C 201.800781 79.394531 201.53125 79.289062 201.265625 79.171875 C 201.195312 79 201.140625 78.847656 201.089844 78.695312 C 201.039062 78.550781 200.996094 78.398438 200.957031 78.25 C 200.90625 78.074219 200.859375 77.898438 200.820312 77.71875 C 200.785156 77.5625 200.753906 77.40625 200.726562 77.246094 C 200.6875 77.035156 200.652344 76.824219 200.628906 76.609375 L 200.621094 76.542969 C 200.613281 76.472656 200.605469 76.402344 200.597656 76.332031 C 200.5625 75.949219 200.542969 75.625 200.539062 75.316406 C 200.535156 74.988281 200.546875 74.652344 200.570312 74.320312 C 200.574219 74.28125 200.578125 74.238281 200.582031 74.199219 L 200.589844 74.128906 C 200.609375 73.882812 200.636719 73.640625 200.671875 73.402344 C 200.683594 73.328125 200.695312 73.257812 200.710938 73.1875 L 200.726562 73.09375 C 200.761719 72.890625 200.804688 72.6875 200.851562 72.488281 C 200.867188 72.414062 200.886719 72.339844 200.90625 72.265625 C 200.972656 72.007812 201.046875 71.753906 201.132812 71.511719 L 201.164062 71.425781 C 201.277344 71.113281 201.402344 70.8125 201.554688 70.492188 C 201.589844 70.417969 201.628906 70.347656 201.667969 70.277344 L 201.703125 70.203125 C 201.816406 69.988281 201.933594 69.78125 202.0625 69.578125 C 202.117188 69.484375 202.179688 69.390625 202.238281 69.296875 C 202.417969 69.035156 202.605469 68.785156 202.792969 68.558594 C 202.84375 68.492188 202.863281 68.46875 202.882812 68.441406 C 202.90625 68.417969 202.929688 68.390625 202.953125 68.363281 L 202.992188 68.324219 C 203.132812 68.167969 203.273438 68.015625 203.425781 67.871094 C 203.476562 67.820312 203.527344 67.773438 203.582031 67.722656 L 203.621094 67.6875 C 203.75 67.566406 203.882812 67.449219 204.019531 67.339844 C 204.089844 67.28125 204.164062 67.222656 204.238281 67.167969 C 204.382812 67.054688 204.53125 66.949219 204.683594 66.847656 L 204.742188 66.804688 C 204.789062 66.773438 204.832031 66.742188 204.878906 66.714844 C 205.097656 66.574219 205.320312 66.441406 205.554688 66.320312 C 205.558594 66.316406 205.597656 66.296875 205.601562 66.296875 C 205.832031 66.179688 206.046875 66.078125 206.265625 65.984375 C 206.324219 65.960938 206.382812 65.9375 206.441406 65.917969 L 206.503906 65.894531 C 206.671875 65.828125 206.84375 65.765625 207.019531 65.707031 C 207.109375 65.679688 207.199219 65.652344 207.289062 65.625 C 207.46875 65.570312 207.648438 65.527344 207.828125 65.484375 L 207.914062 65.464844 C 207.96875 65.449219 208.023438 65.4375 208.078125 65.425781 C 208.34375 65.371094 208.609375 65.328125 208.882812 65.292969 C 209.164062 65.257812 209.457031 65.234375 209.75 65.222656 C 210.679688 65.1875 211.59375 65.28125 212.460938 65.5 Z M 245.03125 72.175781 L 245.863281 69.957031 L 245.867188 69.957031 Z M 252.160156 69.976562 L 252.179688 71.703125 L 250.273438 76.773438 C 250.269531 76.773438 250.269531 76.777344 250.269531 76.777344 C 250.25 76.820312 250.226562 76.855469 250.195312 76.882812 C 250.191406 76.890625 250.183594 76.894531 250.179688 76.902344 C 250.144531 76.929688 250.105469 76.949219 250.0625 76.960938 C 250.058594 76.960938 250.058594 76.964844 250.054688 76.964844 C 250.039062 76.96875 250.023438 76.96875 250.007812 76.972656 C 250 76.972656 249.996094 76.972656 249.988281 76.972656 L 249.980469 76.976562 C 249.980469 76.976562 249.976562 76.976562 249.976562 76.976562 L 243.835938 77.203125 C 243.832031 77.207031 243.828125 77.207031 243.824219 77.207031 C 243.75 77.207031 243.675781 77.175781 243.617188 77.125 L 238.886719 72.945312 C 238.886719 72.941406 238.882812 72.9375 238.878906 72.933594 C 238.941406 72.996094 239.019531 73.03125 239.109375 73.023438 L 239.886719 72.992188 L 243.9375 76.574219 L 249.1875 76.378906 L 245.132812 72.796875 L 240.875 72.957031 L 245.261719 72.792969 C 245.386719 72.789062 245.496094 72.707031 245.542969 72.589844 L 245.617188 72.390625 L 249.84375 76.128906 Z M 231.523438 72.683594 L 223.753906 72.972656 L 231.523438 72.683594 L 231.5 70.496094 Z M 236.132812 66.324219 L 236.25 76.464844 L 232.152344 72.84375 L 232.101562 68.351562 L 232.15625 72.980469 C 232.15625 73.148438 232.023438 73.289062 231.855469 73.296875 L 223.457031 73.605469 C 223.453125 73.609375 223.449219 73.609375 223.445312 73.609375 C 223.367188 73.609375 223.289062 73.578125 223.234375 73.523438 C 223.234375 73.527344 223.234375 73.527344 223.238281 73.527344 L 227.964844 77.710938 C 228.023438 77.761719 228.097656 77.789062 228.171875 77.789062 C 228.179688 77.789062 228.183594 77.789062 228.183594 77.789062 L 236.570312 77.476562 L 236.582031 77.476562 C 236.621094 77.476562 236.65625 77.464844 236.691406 77.453125 C 236.691406 77.449219 236.695312 77.453125 236.703125 77.449219 C 236.707031 77.449219 236.707031 77.445312 236.710938 77.441406 C 236.757812 77.417969 236.800781 77.382812 236.828125 77.335938 C 236.832031 77.332031 236.835938 77.328125 236.839844 77.320312 C 236.847656 77.304688 236.859375 77.289062 236.867188 77.269531 C 236.878906 77.238281 236.882812 77.203125 236.882812 77.167969 C 236.882812 77.164062 236.882812 77.164062 236.882812 77.164062 L 236.777344 67.890625 Z M 228.289062 77.160156 L 224.238281 73.578125 L 231.726562 73.300781 L 235.78125 76.882812 Z M 264.296875 75.816406 L 264.3125 76.441406 L 257.242188 76.703125 C 257.238281 76.703125 257.234375 76.703125 257.230469 76.703125 C 257.152344 76.703125 257.082031 76.671875 257.023438 76.625 L 252.292969 72.441406 C 252.199219 72.355469 252.164062 72.222656 252.207031 72.101562 C 252.25 71.980469 252.363281 71.902344 252.488281 71.894531 L 260.886719 71.585938 C 260.957031 71.574219 261.046875 71.609375 261.105469 71.664062 L 264.261719 74.453125 L 264.28125 75.308594 L 260.785156 72.214844 L 253.292969 72.492188 L 257.34375 76.074219 Z M 264.296875 75.816406 " fill-opacity="1" fill-rule="nonzero"/></g><path fill="#4289ef" d="M 95.859375 52.699219 L 98.960938 61.542969 L 98.671875 62.640625 L 95.285156 52.988281 L 91.375 49.625 L 97.5 67.070312 L 90.976562 48.5 C 90.957031 48.441406 90.921875 48.394531 90.878906 48.359375 C 90.878906 48.363281 90.882812 48.363281 90.886719 48.363281 L 95.765625 52.5625 C 95.808594 52.601562 95.839844 52.648438 95.859375 52.699219 Z M 76.800781 53.527344 L 71.921875 49.328125 C 71.917969 49.328125 71.917969 49.328125 71.914062 49.324219 C 71.960938 49.363281 72 49.414062 72.019531 49.472656 L 72.367188 50.554688 L 76.316406 53.953125 L 79.375 63.417969 L 79.695312 62.324219 L 76.898438 53.671875 C 76.878906 53.617188 76.847656 53.566406 76.800781 53.527344 Z M 88.78125 78.207031 L 87.652344 64.15625 L 81.53125 83.726562 C 81.492188 83.855469 81.378906 83.945312 81.242188 83.949219 L 81.117188 83.957031 L 85.898438 88.074219 C 85.957031 88.121094 86.03125 88.148438 86.105469 88.148438 C 86.136719 88.148438 86.164062 88.144531 86.195312 88.136719 C 86.296875 88.109375 86.378906 88.027344 86.410156 87.925781 L 91.042969 73.117188 L 90.675781 72.144531 Z M 168.519531 68.976562 C 168.542969 69.195312 168.578125 69.40625 168.617188 69.613281 C 168.644531 69.765625 168.671875 69.917969 168.703125 70.070312 C 168.746094 70.25 168.792969 70.429688 168.851562 70.640625 C 168.890625 70.769531 168.929688 70.902344 168.96875 71.027344 C 169.019531 71.175781 169.074219 71.320312 169.128906 71.460938 C 169.394531 71.582031 169.667969 71.691406 169.945312 71.785156 C 169.925781 71.746094 169.90625 71.707031 169.886719 71.667969 C 169.847656 71.578125 169.808594 71.484375 169.773438 71.386719 L 169.738281 71.304688 C 169.679688 71.152344 169.617188 70.996094 169.5625 70.832031 C 169.523438 70.714844 169.488281 70.589844 169.445312 70.4375 C 169.398438 70.269531 169.355469 70.105469 169.316406 69.933594 C 169.285156 69.792969 169.257812 69.648438 169.230469 69.503906 C 169.195312 69.304688 169.164062 69.109375 169.136719 68.867188 C 169.125 68.789062 169.117188 68.714844 169.109375 68.636719 C 169.074219 68.28125 169.058594 67.972656 169.054688 67.675781 C 169.050781 67.363281 169.058594 67.050781 169.082031 66.722656 L 169.105469 66.515625 C 169.125 66.289062 169.148438 66.066406 169.183594 65.847656 C 169.195312 65.769531 169.210938 65.691406 169.226562 65.613281 L 169.234375 65.554688 C 169.273438 65.355469 169.3125 65.15625 169.359375 64.960938 L 169.40625 64.773438 C 169.472656 64.527344 169.546875 64.28125 169.632812 64.046875 C 169.738281 63.746094 169.867188 63.445312 170.011719 63.144531 C 170.03125 63.101562 170.054688 63.058594 170.078125 63.015625 L 170.132812 62.914062 C 170.242188 62.707031 170.355469 62.507812 170.476562 62.3125 C 170.53125 62.222656 170.589844 62.140625 170.648438 62.054688 C 170.789062 61.847656 170.9375 61.648438 171.09375 61.457031 L 171.164062 61.371094 C 171.203125 61.320312 171.242188 61.273438 171.28125 61.226562 C 171.320312 61.179688 171.363281 61.136719 171.40625 61.089844 L 171.453125 61.042969 C 171.566406 60.917969 171.683594 60.800781 171.800781 60.6875 C 171.867188 60.625 171.929688 60.566406 171.996094 60.507812 C 172.121094 60.394531 172.25 60.289062 172.382812 60.183594 L 172.445312 60.132812 C 172.488281 60.097656 172.53125 60.0625 172.574219 60.03125 C 172.746094 59.902344 172.921875 59.78125 173.105469 59.664062 C 173.109375 59.660156 173.183594 59.613281 173.183594 59.609375 C 173.394531 59.480469 173.613281 59.359375 173.832031 59.246094 C 173.871094 59.226562 173.914062 59.207031 173.953125 59.1875 L 174.035156 59.148438 C 174.195312 59.070312 174.355469 59 174.519531 58.929688 C 174.605469 58.894531 174.6875 58.863281 174.773438 58.832031 C 174.929688 58.773438 175.085938 58.71875 175.242188 58.667969 C 175.332031 58.640625 175.421875 58.613281 175.511719 58.585938 C 175.679688 58.539062 175.851562 58.496094 176.023438 58.457031 L 176.117188 58.4375 C 176.164062 58.425781 176.214844 58.414062 176.261719 58.402344 C 176.515625 58.351562 176.773438 58.308594 177.03125 58.277344 C 177.3125 58.242188 177.605469 58.21875 177.898438 58.207031 C 179.011719 58.167969 180.863281 58.289062 181.753906 58.53125 L 180.847656 57.734375 C 179.832031 57.601562 178.617188 57.554688 177.875 57.585938 C 177.5625 57.597656 177.253906 57.621094 176.957031 57.65625 C 176.679688 57.691406 176.40625 57.738281 176.136719 57.792969 C 176.082031 57.804688 176.027344 57.816406 175.96875 57.828125 L 175.882812 57.851562 C 175.699219 57.890625 175.519531 57.9375 175.339844 57.988281 C 175.242188 58.015625 175.148438 58.042969 175.050781 58.074219 C 174.882812 58.128906 174.71875 58.1875 174.554688 58.25 C 174.460938 58.28125 174.371094 58.316406 174.28125 58.355469 C 174.105469 58.425781 173.933594 58.503906 173.765625 58.585938 L 173.691406 58.621094 C 173.640625 58.644531 173.59375 58.664062 173.546875 58.6875 C 173.308594 58.8125 173.078125 58.941406 172.855469 59.078125 L 172.765625 59.136719 C 172.574219 59.261719 172.382812 59.390625 172.195312 59.53125 C 172.144531 59.570312 172.097656 59.609375 172.050781 59.648438 L 171.988281 59.695312 C 171.847656 59.808594 171.710938 59.921875 171.578125 60.042969 C 171.507812 60.105469 171.4375 60.167969 171.367188 60.234375 C 171.238281 60.359375 171.113281 60.484375 170.992188 60.613281 L 170.949219 60.664062 C 170.902344 60.714844 170.851562 60.761719 170.808594 60.816406 C 170.761719 60.871094 170.714844 60.925781 170.671875 60.980469 L 170.605469 61.0625 C 170.4375 61.269531 170.277344 61.484375 170.128906 61.703125 C 170.066406 61.792969 170.003906 61.882812 169.945312 61.980469 C 169.8125 62.1875 169.691406 62.40625 169.578125 62.625 L 169.53125 62.714844 C 169.5 62.765625 169.472656 62.820312 169.445312 62.875 C 169.289062 63.191406 169.15625 63.515625 169.039062 63.835938 C 168.949219 64.085938 168.871094 64.347656 168.800781 64.613281 L 168.75 64.8125 C 168.699219 65.015625 168.65625 65.226562 168.617188 65.441406 L 168.605469 65.5 C 168.589844 65.582031 168.574219 65.667969 168.5625 65.75 C 168.527344 65.984375 168.5 66.21875 168.480469 66.457031 L 168.457031 66.675781 C 168.433594 67.023438 168.421875 67.355469 168.425781 67.679688 C 168.429688 67.996094 168.449219 68.320312 168.484375 68.695312 C 168.496094 68.777344 168.503906 68.859375 168.519531 68.976562 Z M 187.242188 72.8125 C 187.15625 72.957031 187.070312 73.101562 186.984375 73.242188 C 187.074219 73.101562 187.15625 72.960938 187.242188 72.824219 C 187.242188 72.820312 187.242188 72.816406 187.242188 72.8125 Z M 189.074219 79.78125 C 189 79.851562 188.929688 79.921875 188.855469 79.992188 L 188.785156 80.058594 C 188.617188 80.222656 188.453125 80.378906 188.28125 80.53125 L 188.210938 80.59375 C 188.1875 80.617188 188.167969 80.636719 188.144531 80.65625 C 188.121094 80.675781 188.097656 80.695312 188.074219 80.710938 C 188.042969 80.734375 188.015625 80.757812 187.988281 80.78125 C 187.769531 80.964844 187.546875 81.136719 187.320312 81.304688 L 187.222656 81.378906 C 187.171875 81.417969 187.125 81.453125 187.078125 81.488281 C 186.761719 81.710938 186.453125 81.914062 186.15625 82.09375 L 185.988281 82.1875 C 185.726562 82.34375 185.460938 82.488281 185.195312 82.625 C 185.09375 82.675781 184.992188 82.726562 184.890625 82.773438 C 184.652344 82.886719 184.414062 82.996094 184.171875 83.097656 L 183.894531 83.214844 C 183.546875 83.355469 183.222656 83.46875 182.867188 83.585938 L 182.804688 83.605469 C 182.507812 83.699219 182.207031 83.78125 181.910156 83.859375 L 181.597656 83.9375 C 181.355469 83.992188 181.113281 84.046875 180.871094 84.09375 L 180.570312 84.148438 C 180.242188 84.210938 179.910156 84.261719 179.582031 84.300781 C 179.046875 84.367188 178.496094 84.410156 177.949219 84.429688 C 173.289062 84.605469 168.949219 83.140625 165.746094 80.308594 L 164.371094 79.09375 C 162.996094 78.429688 161.757812 77.566406 160.621094 76.554688 C 160.625 76.5625 160.605469 76.605469 160.613281 76.609375 C 161.246094 77.242188 161.941406 77.804688 162.621094 78.390625 C 163.316406 78.988281 164 79.605469 164.695312 80.214844 C 164.847656 80.351562 165.003906 80.488281 165.15625 80.625 C 165.207031 80.667969 165.265625 80.746094 165.328125 80.777344 C 168.476562 83.558594 172.664062 85.066406 177.199219 85.066406 C 177.457031 85.066406 177.714844 85.0625 177.972656 85.054688 C 178.539062 85.03125 179.105469 84.988281 179.65625 84.921875 C 179.996094 84.878906 180.339844 84.824219 180.683594 84.765625 C 180.761719 84.75 180.835938 84.734375 180.917969 84.71875 L 180.992188 84.707031 C 181.242188 84.65625 181.496094 84.601562 181.746094 84.542969 L 181.8125 84.527344 C 181.898438 84.507812 181.984375 84.488281 182.066406 84.464844 C 182.378906 84.386719 182.6875 84.296875 183.039062 84.1875 L 183.105469 84.167969 C 183.433594 84.0625 183.765625 83.9375 184.128906 83.792969 C 184.195312 83.765625 184.265625 83.738281 184.332031 83.707031 L 184.417969 83.671875 C 184.667969 83.566406 184.917969 83.457031 185.167969 83.335938 C 185.269531 83.285156 185.375 83.234375 185.480469 83.179688 C 185.761719 83.039062 186.035156 82.886719 186.308594 82.726562 L 186.480469 82.628906 C 186.792969 82.441406 187.117188 82.226562 187.441406 81.996094 C 187.496094 81.957031 187.550781 81.917969 187.601562 81.875 L 187.695312 81.804688 C 187.929688 81.632812 188.164062 81.449219 188.394531 81.257812 L 188.457031 81.207031 C 188.488281 81.183594 188.523438 81.15625 188.550781 81.128906 C 188.585938 81.101562 188.613281 81.074219 188.644531 81.042969 L 188.699219 80.996094 C 188.875 80.839844 189.050781 80.675781 189.222656 80.507812 L 189.292969 80.441406 C 189.367188 80.371094 189.441406 80.296875 189.515625 80.222656 C 189.402344 80.035156 189.296875 79.84375 189.195312 79.648438 C 189.152344 79.691406 189.113281 79.738281 189.074219 79.78125 Z M 133.203125 82.886719 C 133.140625 82.828125 133.054688 82.792969 132.96875 82.804688 L 121.09375 83.40625 L 120.96875 78.359375 L 130.480469 77.875 C 130.65625 77.867188 130.789062 77.722656 130.785156 77.546875 L 130.589844 69.820312 C 130.589844 69.734375 130.550781 69.652344 130.488281 69.59375 C 130.425781 69.535156 130.339844 69.5 130.253906 69.511719 L 120.757812 69.992188 L 120.640625 65.1875 L 132.148438 64.601562 C 132.320312 64.59375 132.453125 64.449219 132.449219 64.273438 L 132.253906 56.449219 C 132.253906 56.363281 132.214844 56.28125 132.152344 56.222656 C 132.089844 56.167969 132.003906 56.128906 131.917969 56.140625 L 115.578125 56.972656 L 113.71875 63.445312 L 114.359375 89.125 L 132.796875 88.1875 L 132.859375 90.644531 L 112.730469 91.664062 L 112.164062 68.859375 L 111.574219 70.90625 L 112.101562 92.007812 C 112.101562 92.09375 112.136719 92.175781 112.203125 92.234375 C 112.261719 92.285156 112.339844 92.316406 112.417969 92.316406 C 112.425781 92.316406 112.429688 92.316406 112.433594 92.316406 L 133.203125 91.265625 C 133.375 91.253906 133.507812 91.109375 133.503906 90.9375 L 133.304688 83.113281 C 133.304688 83.027344 133.265625 82.945312 133.203125 82.886719 Z M 285.996094 86.679688 C 286 86.851562 285.867188 87 285.695312 87.007812 L 264.925781 88.058594 C 264.921875 88.0625 264.917969 88.0625 264.910156 88.0625 C 264.832031 88.0625 264.753906 88.03125 264.695312 87.976562 C 264.632812 87.917969 264.59375 87.835938 264.59375 87.75 L 263.734375 53.25 C 263.730469 53.074219 263.863281 52.929688 264.035156 52.921875 L 284.410156 51.882812 C 284.492188 51.871094 284.582031 51.910156 284.644531 51.96875 C 284.707031 52.027344 284.746094 52.109375 284.746094 52.195312 L 284.941406 60.019531 C 284.945312 60.191406 284.8125 60.335938 284.636719 60.34375 L 273.132812 60.929688 L 273.25 65.738281 L 282.746094 65.253906 C 282.832031 65.242188 282.917969 65.28125 282.980469 65.339844 C 283.042969 65.398438 283.078125 65.480469 283.082031 65.5625 L 283.273438 73.292969 C 283.28125 73.464844 283.144531 73.609375 282.972656 73.617188 L 273.460938 74.101562 L 273.585938 79.152344 L 285.460938 78.546875 C 285.546875 78.535156 285.632812 78.574219 285.695312 78.632812 C 285.757812 78.691406 285.796875 78.769531 285.796875 78.855469 Z M 285.351562 86.386719 L 285.289062 83.933594 L 266.851562 84.867188 L 266.070312 53.457031 L 264.378906 53.542969 L 265.222656 87.410156 Z M 285.351562 86.386719 " fill-opacity="1" fill-rule="nonzero"/><path stroke-linecap="butt" transform="matrix(0.744485, 0, 0, 0.744485, 38.558819, 93.805152)" fill="none" stroke-linejoin="miter" d="M -0.000302292 1.99845 L 384.000322 1.99845 " stroke="#000000" stroke-width="4" stroke-opacity="1" stroke-miterlimit="4"/></svg>